<svg width="800" height="800" viewBox="0 0 24 24" xmlns="http://www.w3.org/2000/svg"><g fill-rule="nonzero" fill="none"><path d="M24 0v24H0V0h24ZM12.6 23.26h-.02l-.07.04h-.03l-.07-.04h-.03v.02l-.02.42v.02l.02.02.1.07h.02l.11-.07.01-.02v-.02l-.01-.42c0-.01 0-.02-.02-.02Zm.26-.11h-.02l-.18.09-.01.01v.01l.02.43v.02l.2.1.04-.01v-.02l-.03-.61c0-.02-.01-.02-.02-.02Zm-.72 0h-.02l-.01.02-.03.61.01.02h.02l.2-.09.01-.02.02-.43v-.01l-.01-.01-.19-.1Z"/><path d="M17 4c1.1 0 1.96.84 2.58 1.75l.22.32.2.32.17.3c.79 1.42 1.47 3.25 1.93 5.07.45 1.8.7 3.68.53 5.16C22.48 18.4 21.71 20 20 20c-1.53 0-2.74-.82-3.73-1.62l-1.1-.93C14.23 16.69 13.22 16 12 16s-2.24.7-3.16 1.45l-1.11.93C6.74 19.18 5.53 20 4 20c-1.71 0-2.48-1.6-2.63-3.08-.16-1.48.08-3.36.53-5.16A21.44 21.44 0 0 1 3.83 6.7l.18-.31.2-.32.2-.32C5.05 4.85 5.9 4 7 4c.51 0 1.02.12 1.52.27l.59.18.29.09A9.7 9.7 0 0 0 12 5a9.7 9.7 0 0 0 2.6-.46l.88-.27C15.98 4.12 16.5 4 17 4ZM8.5 8a2.5 2.5 0 1 0 0 5 2.5 2.5 0 0 0 0-5Zm7 0a1 1 0 0 0-1 1v.5H14a1 1 0 1 0 0 2h.5v.5a1 1 0 1 0 2 0v-.5h.5a1 1 0 1 0 0-2h-.5V9a1 1 0 0 0-1-1Zm-7 2a.5.5 0 1 1 0 1 .5.5 0 0 1 0-1Z" fill="#09244B"/></g></svg>